<svg xmlns="http://www.w3.org/2000/svg" viewBox="0 0 24 24" fill="none" stroke="currentColor" stroke-width="2" stroke-linecap="round" stroke-linejoin="round">
  <path d="M9.5 2a2.5 2.5 0 1 1 0 5 2.5 2.5 0 0 1 0-5Z"/>
  <path d="M14.5 2a2.5 2.5 0 1 0 0 5 2.5 2.5 0 0 0 0-5Z"/>
  <path d="M3 10.5a4.5 4.5 0 0 1 4-4.4"/><path d="M21 10.5a4.5 4.5 0 0 0-4-4.4"/>
  <path d="M6.5 10.5a2 2 0 0 0-2 2c0 3.4 3.2 4.8 3.8 5.5"/>
  <path d="M17.5 10.5a2 2 0 0 1 2 2c0 3.4-3.2 4.8-3.8 5.5"/>
  <path d="M9.5 14a2.5 2.5 0 1 0 0 5 2.5 2.5 0 0 0 0-5Z"/>
  <path d="M14.5 14a2.5 2.5 0 1 1 0 5 2.5 2.5 0 0 1 0-5Z"/>
  <path d="M9.5 21.4a2.5 2.5 0 0 1-2.5-2.4"/>
  <path d="M14.5 21.4a2.5 2.5 0 0 0 2.5-2.4"/>
  <path d="M12 8v8"/>
  <path d="M8 12h8"/>
</svg>
